 <svg  version="1.0" xmlns="http://www.w3.org/2000/svg"  width="900.000000pt" height="939.000000pt" viewBox="0 0 900.000000 939.000000"  preserveAspectRatio="xMidYMid meet">  <g transform="translate(0.000000,939.000000) scale(0.100000,-0.100000)" fill="#4c9f49" stroke="none"> <path d="M8970 9375 c0 -9 -12 -20 -27 -26 -16 -6 -44 -18 -63 -26 -19 -9 -48 -22 -65 -29 -118 -51 -393 -186 -540 -266 -38 -21 -77 -41 -85 -45 -8 -4 -44 -24 -79 -46 -35 -21 -74 -43 -85 -48 -12 -5 -34 -18 -51 -29 -16 -11 -39 -24 -50 -30 -40 -22 -107 -64 -310 -199 -145 -96 -546 -388 -570 -416 -5 -6 -30 -27 -55 -45 -37 -28 -171 -141 -190 -160 -3 -3 -34 -30 -69 -60 -184 -157 -629 -601 -781 -780 -25 -29 -49 -58 -55 -64 -80 -88 -250 -296 -395 -481 -30 -38 -58 -74 -62 -80 -22 -26 -227 -307 -265 -363 -23 -34 -64 -93 -90 -130 -25 -37 -72 -105 -103 -152 -31 -47 -74 -111 -96 -143 -21 -32 -43 -66 -49 -75 -64 -110 -192 -286 -223 -307 -43 -29 -61 -31 -110 -8 -61 27 -226 178 -304 278 -12 16 -30 37 -38 46 -38 40 -89 98 -125 144 -22 28 -45 55 -51 60 -6 6 -47 53 -90 105 -77 93 -184 221 -228 270 -12 14 -65 77 -118 140 -53 63 -104 124 -115 135 -10 11 -36 42 -58 70 -22 27 -47 56 -55 65 -28 31 -85 96 -140 160 -30 36 -60 70 -66 75 -6 6 -53 59 -105 120 -52 60 -101 117 -109 126 -27 29 -84 93 -140 159 -30 35 -68 78 -85 95 -32 33 -57 61 -170 190 -38 44 -79 88 -90 100 -11 11 -67 72 -124 135 -120 133 -199 219 -285 310 -34 36 -106 114 -161 174 -55 60 -113 124 -130 141 -16 17 -97 102 -180 190 -262 279 -299 318 -330 347 l-30 28 -3 -691 -2 -691 36 -42 c21 -22 100 -108 178 -190 169 -179 175 -185 250 -267 33 -35 137 -145 230 -243 94 -99 182 -191 196 -206 14 -14 84 -89 155 -165 72 -76 150 -159 175 -184 46 -48 344 -361 460 -485 36 -38 85 -90 110 -115 151 -156 277 -290 365 -385 55 -60 118 -128 140 -151 76 -80 151 -160 220 -239 39 -44 77 -87 85 -96 9 -8 42 -49 75 -90 33 -41 65 -79 71 -85 17 -15 134 -173 134 -180 0 -4 11 -21 24 -38 34 -46 55 -93 77 -167 23 -79 24 -102 3 -148 -38 -86 -213 -428 -270 -527 -19 -33 -39 -69 -44 -80 -6 -11 -19 -33 -30 -50 -11 -16 -24 -40 -30 -53 -5 -12 -28 -50 -50 -83 -22 -33 -40 -62 -40 -65 0 -14 -272 -402 -322 -459 -9 -11 -39 -47 -65 -80 -109 -138 -383 -422 -477 -496 -16 -12 -43 -35 -60 -51 -86 -79 -371 -291 -488 -363 -146 -90 -247 -150 -308 -184 -160 -88 -586 -291 -609 -291 -5 0 -22 -6 -38 -14 -15 -8 -48 -22 -73 -31 -25 -10 -54 -21 -65 -26 -25 -12 -168 -63 -260 -94 -39 -13 -81 -28 -95 -33 -14 -5 -52 -18 -85 -27 -33 -10 -74 -24 -92 -32 -17 -7 -37 -13 -44 -13 -7 0 -31 -6 -54 -14 -40 -14 -101 -32 -212 -62 -32 -9 -72 -20 -89 -25 -56 -17 -178 -47 -216 -53 l-38 -7 0 -479 c0 -272 4 -480 9 -480 5 0 22 7 37 15 16 8 38 15 49 15 10 0 37 6 60 14 42 14 99 32 200 61 33 10 76 23 95 30 19 7 62 21 95 30 33 10 69 22 80 26 22 9 146 53 210 74 22 8 65 23 95 35 30 12 64 24 75 27 11 4 29 12 40 20 11 7 27 13 36 13 10 0 30 6 46 14 35 18 83 38 153 66 30 12 80 34 110 48 30 14 84 38 120 55 95 43 315 154 385 193 33 18 83 45 110 59 28 14 64 35 80 45 17 11 39 24 50 30 11 6 34 19 50 30 17 11 37 23 45 27 22 12 226 144 255 166 5 4 69 50 140 102 72 52 135 98 141 104 6 5 49 40 95 77 95 77 109 90 269 236 122 112 230 222 345 353 39 43 77 86 85 95 102 108 442 575 535 732 5 9 46 77 90 150 97 161 100 165 119 203 8 17 28 53 45 80 16 28 38 66 48 85 11 19 41 76 68 125 26 50 198 387 380 750 182 363 350 694 372 735 63 119 115 213 135 245 10 17 22 39 27 51 5 11 27 50 48 85 22 35 43 71 47 79 8 17 21 39 59 97 15 24 27 45 27 48 0 3 9 18 19 33 10 15 62 92 114 172 53 80 113 170 134 200 39 57 222 301 232 310 3 3 24 28 46 55 21 28 42 52 45 55 3 3 50 57 104 120 130 150 343 367 480 488 61 54 124 110 140 125 17 16 58 50 91 75 33 25 65 51 70 58 29 33 415 307 581 411 62 40 281 171 294 177 8 3 31 16 50 28 102 62 550 287 687 345 18 7 48 20 68 29 268 114 249 103 253 161 3 66 11 95 22 88 6 -4 10 11 10 34 0 30 -4 41 -15 41 -11 0 -15 11 -15 38 0 53 11 87 21 70 5 -7 9 157 9 370 0 333 -2 382 -15 382 -8 0 -15 -7 -15 -15z"/> <path d="M0 5740 l0 -3570 425 0 425 0 2 3555 c0 1955 1 3561 2 3568 1 9 -92 13 -426 15 l-428 2 0 -3570z"/> <path d="M8098 4483 c-3 -2740 -3 -2758 -23 -2785 -33 -45 -99 -59 -177 -38 -40 11 -61 32 -234 225 -54 61 -101 112 -104 115 -3 3 -37 41 -75 84 -39 44 -77 87 -85 96 -55 58 -182 200 -201 224 -13 16 -37 44 -54 61 -31 32 -162 176 -231 255 -21 24 -46 51 -54 60 -43 46 -131 144 -182 201 -63 72 -90 102 -157 174 -25 28 -78 86 -116 129 -39 44 -77 87 -85 96 -8 9 -38 41 -65 71 -28 30 -82 90 -120 133 -39 44 -77 87 -85 96 -8 9 -38 41 -65 71 -28 30 -82 90 -120 133 -39 44 -81 91 -95 106 -14 14 -59 64 -100 110 -224 251 -278 306 -288 295 -5 -5 -23 -46 -41 -90 -18 -44 -39 -93 -47 -108 -8 -16 -14 -33 -14 -38 0 -6 -9 -31 -21 -57 -27 -62 -31 -73 -69 -167 -17 -44 -37 -93 -45 -110 -7 -16 -20 -50 -30 -75 -9 -25 -23 -58 -30 -75 -74 -172 -78 -185 -64 -202 23 -30 175 -204 234 -267 6 -6 35 -40 65 -75 30 -36 78 -90 106 -120 28 -31 82 -92 120 -136 38 -44 76 -87 84 -95 8 -8 62 -69 120 -135 58 -65 112 -126 120 -135 39 -41 155 -173 174 -198 11 -15 32 -38 47 -52 14 -14 68 -74 120 -135 52 -60 101 -117 109 -125 8 -8 62 -69 120 -135 58 -66 126 -142 151 -170 25 -27 79 -88 120 -135 41 -47 81 -92 89 -101 27 -29 84 -93 140 -159 30 -35 78 -89 106 -120 28 -30 82 -91 120 -135 38 -44 76 -87 84 -95 8 -8 62 -69 120 -135 58 -65 112 -126 120 -135 36 -39 154 -173 174 -197 11 -15 32 -39 46 -53 46 -48 105 -114 134 -150 15 -19 63 -73 106 -120 42 -47 92 -102 109 -122 l33 -38 454 0 454 0 0 3620 0 3620 -450 0 -450 0 -2 -2757z"/> </g> </svg> 